<mxfile host="179db8a8-57e8-40fd-9c5d-2c8b4c12334c" modified="2020-09-20T07:41:24.495Z" agent="5.0 (Windows NT 10.0; Win64; x64) AppleWebKit/537.36 (KHTML, like Gecko) Code/1.49.1 Chrome/83.0.4103.122 Electron/9.2.1 Safari/537.36" etag="7-F2d7kCvckkePip01Px" version="13.1.3">
    <diagram id="6hGFLwfOUW9BJ-s0fimq" name="Page-1">
        <mxGraphModel dx="992" dy="577" grid="0" gridSize="10" guides="1" tooltips="1" connect="1" arrows="1" fold="1" page="1" pageScale="1" pageWidth="3300" pageHeight="2339" math="0" shadow="0">
            <root>
                <mxCell id="0"/>
                <mxCell id="1" parent="0"/>
                <mxCell id="18" style="edgeStyle=orthogonalEdgeStyle;rounded=0;orthogonalLoop=1;jettySize=auto;html=1;exitX=0.5;exitY=1;exitDx=0;exitDy=0;exitPerimeter=0;entryX=0.5;entryY=0;entryDx=0;entryDy=0;fontSize=14;" edge="1" parent="1" source="2" target="14">
                    <mxGeometry relative="1" as="geometry"/>
                </mxCell>
                <mxCell id="2" value="start" style="strokeWidth=1;html=1;shape=mxgraph.flowchart.start_1;whiteSpace=wrap;fontSize=14;" vertex="1" parent="1">
                    <mxGeometry x="287.5" y="20" width="80" height="40" as="geometry"/>
                </mxCell>
                <mxCell id="25" style="edgeStyle=orthogonalEdgeStyle;rounded=0;orthogonalLoop=1;jettySize=auto;html=1;exitX=0.5;exitY=1;exitDx=0;exitDy=0;fontSize=14;" edge="1" parent="1" source="5" target="23">
                    <mxGeometry relative="1" as="geometry"/>
                </mxCell>
                <mxCell id="5" value="对&lt;font color=&quot;#ff8000&quot;&gt;容器中成员变量&lt;/font&gt;beanFactoryPostProcessors&lt;br&gt;的BeanDefinitionRegistryPostProcessor进行执行" style="rounded=1;whiteSpace=wrap;html=1;absoluteArcSize=1;arcSize=14;strokeWidth=1;fontSize=14;align=center;" vertex="1" parent="1">
                    <mxGeometry x="705" y="140" width="380" height="60" as="geometry"/>
                </mxCell>
                <mxCell id="29" style="edgeStyle=orthogonalEdgeStyle;rounded=0;orthogonalLoop=1;jettySize=auto;html=1;exitX=0.5;exitY=1;exitDx=0;exitDy=0;fontSize=14;" edge="1" parent="1" source="6" target="27">
                    <mxGeometry relative="1" as="geometry"/>
                </mxCell>
                <mxCell id="6" value="执行容器中实现了&lt;font color=&quot;#ff8000&quot;&gt;PriorityOrdered&lt;/font&gt;接口的BeanDefinitionRegistryPostProcessor" style="rounded=1;whiteSpace=wrap;html=1;absoluteArcSize=1;arcSize=14;strokeWidth=1;fontSize=14;align=center;" vertex="1" parent="1">
                    <mxGeometry x="1465" y="187" width="280" height="63" as="geometry"/>
                </mxCell>
                <mxCell id="9" value="执行容器中其他的BeanDefinitionRegistryPostProcessor" style="rounded=1;whiteSpace=wrap;html=1;absoluteArcSize=1;arcSize=14;strokeWidth=1;fontSize=14;align=center;" vertex="1" parent="1">
                    <mxGeometry x="1460" y="390" width="290" height="60" as="geometry"/>
                </mxCell>
                <mxCell id="19" style="edgeStyle=orthogonalEdgeStyle;rounded=0;orthogonalLoop=1;jettySize=auto;html=1;exitX=0.5;exitY=1;exitDx=0;exitDy=0;fontSize=14;" edge="1" parent="1" source="14" target="15">
                    <mxGeometry relative="1" as="geometry"/>
                </mxCell>
                <mxCell id="14" value="&lt;font style=&quot;text-align: left&quot;&gt;invoke&amp;nbsp;&lt;/font&gt;&lt;font style=&quot;text-align: left&quot;&gt;postProcessBeanDefinitionRegistry()&lt;/font&gt;" style="verticalLabelPosition=middle;verticalAlign=middle;html=1;shape=process;whiteSpace=wrap;rounded=1;size=0.14;arcSize=6;strokeWidth=1;fontSize=14;align=center;labelPosition=center;" vertex="1" parent="1">
                    <mxGeometry x="130" y="95" width="387.5" height="55" as="geometry"/>
                </mxCell>
                <mxCell id="20" style="edgeStyle=orthogonalEdgeStyle;rounded=0;orthogonalLoop=1;jettySize=auto;html=1;exitX=0.5;exitY=1;exitDx=0;exitDy=0;entryX=0.5;entryY=0;entryDx=0;entryDy=0;entryPerimeter=0;fontSize=14;" edge="1" parent="1" source="15" target="17">
                    <mxGeometry relative="1" as="geometry"/>
                </mxCell>
                <mxCell id="31" style="rounded=0;orthogonalLoop=1;jettySize=auto;html=1;exitX=1;exitY=0.5;exitDx=0;exitDy=0;entryX=0;entryY=0.5;entryDx=0;entryDy=0;fontSize=14;horizontal=1;dashed=1;endArrow=none;endFill=0;" edge="1" parent="1" source="14" target="21">
                    <mxGeometry relative="1" as="geometry"/>
                </mxCell>
                <mxCell id="15" value="&lt;div style=&quot;text-align: left&quot;&gt;&lt;span&gt;invoke postProcessBeanFactory()&lt;/span&gt;&lt;/div&gt;" style="verticalLabelPosition=middle;verticalAlign=middle;html=1;shape=process;whiteSpace=wrap;rounded=1;size=0.14;arcSize=6;strokeWidth=1;fontSize=14;align=center;labelPosition=center;" vertex="1" parent="1">
                    <mxGeometry x="136.25" y="190" width="375" height="55" as="geometry"/>
                </mxCell>
                <mxCell id="17" value="end" style="strokeWidth=1;html=1;shape=mxgraph.flowchart.start_1;whiteSpace=wrap;fontSize=14;" vertex="1" parent="1">
                    <mxGeometry x="283.75" y="280" width="80" height="40" as="geometry"/>
                </mxCell>
                <mxCell id="24" style="edgeStyle=orthogonalEdgeStyle;rounded=0;orthogonalLoop=1;jettySize=auto;html=1;exitX=0.5;exitY=1;exitDx=0;exitDy=0;fontSize=14;" edge="1" parent="1" source="21" target="5">
                    <mxGeometry relative="1" as="geometry"/>
                </mxCell>
                <mxCell id="21" value="&lt;font style=&quot;text-align: left&quot;&gt;invoke&amp;nbsp;&lt;/font&gt;&lt;font style=&quot;text-align: left&quot;&gt;postProcessBeanDefinitionRegistry()&lt;/font&gt;" style="verticalLabelPosition=middle;verticalAlign=middle;html=1;shape=process;whiteSpace=wrap;rounded=1;size=0.14;arcSize=6;strokeWidth=1;fontSize=14;align=center;labelPosition=center;" vertex="1" parent="1">
                    <mxGeometry x="690" y="40" width="410" height="60" as="geometry"/>
                </mxCell>
                <mxCell id="32" style="edgeStyle=none;rounded=0;orthogonalLoop=1;jettySize=auto;html=1;exitX=1;exitY=0.5;exitDx=0;exitDy=0;entryX=0;entryY=0.5;entryDx=0;entryDy=0;dashed=1;endArrow=none;endFill=0;fontSize=14;" edge="1" parent="1" source="23" target="26">
                    <mxGeometry relative="1" as="geometry"/>
                </mxCell>
                <mxCell id="23" value="对&lt;font color=&quot;#ff8000&quot;&gt;容器中所有实现了BeanDefinitionRegistryPostProcessor&lt;/font&gt;&lt;br&gt;的BeanFactory后置处理器进行执行" style="verticalLabelPosition=middle;verticalAlign=middle;html=1;shape=process;whiteSpace=wrap;rounded=1;size=0.14;arcSize=6;strokeWidth=1;fontSize=14;align=center;labelPosition=center;" vertex="1" parent="1">
                    <mxGeometry x="630" y="230" width="530" height="60" as="geometry"/>
                </mxCell>
                <mxCell id="28" style="edgeStyle=orthogonalEdgeStyle;rounded=0;orthogonalLoop=1;jettySize=auto;html=1;exitX=0.5;exitY=1;exitDx=0;exitDy=0;fontSize=14;" edge="1" parent="1" source="26" target="6">
                    <mxGeometry relative="1" as="geometry"/>
                </mxCell>
                <mxCell id="26" value="对&lt;font color=&quot;#ff8000&quot;&gt;容器中所有实现了BeanDefinitionRegistryPostProcessor&lt;/font&gt;&lt;br&gt;的BeanFactory后置处理器进行执行" style="verticalLabelPosition=middle;verticalAlign=middle;html=1;shape=process;whiteSpace=wrap;rounded=1;size=0.14;arcSize=6;strokeWidth=1;fontSize=14;align=center;labelPosition=center;" vertex="1" parent="1">
                    <mxGeometry x="1340" y="90" width="530" height="60" as="geometry"/>
                </mxCell>
                <mxCell id="30" style="edgeStyle=orthogonalEdgeStyle;rounded=0;orthogonalLoop=1;jettySize=auto;html=1;exitX=0.5;exitY=1;exitDx=0;exitDy=0;fontSize=14;" edge="1" parent="1" source="27" target="9">
                    <mxGeometry relative="1" as="geometry"/>
                </mxCell>
                <mxCell id="27" value="&lt;span style=&quot;text-align: left&quot;&gt;执行容器中实现了&lt;/span&gt;&lt;font color=&quot;#ff8000&quot; style=&quot;text-align: left&quot;&gt;Ordered&lt;/font&gt;&lt;span style=&quot;text-align: left&quot;&gt;接口的&lt;/span&gt;&lt;span style=&quot;text-align: left&quot;&gt;BeanDefinitionRegistryPostProcessor&lt;/span&gt;" style="rounded=1;whiteSpace=wrap;html=1;absoluteArcSize=1;arcSize=14;strokeWidth=1;fontSize=14;align=center;" vertex="1" parent="1">
                    <mxGeometry x="1465" y="290" width="280" height="63" as="geometry"/>
                </mxCell>
                <mxCell id="37" style="edgeStyle=none;rounded=0;orthogonalLoop=1;jettySize=auto;html=1;exitX=0.5;exitY=1;exitDx=0;exitDy=0;endArrow=block;endFill=1;fontSize=14;" edge="1" parent="1" source="33" target="47">
                    <mxGeometry relative="1" as="geometry"/>
                </mxCell>
                <mxCell id="33" value="&lt;div style=&quot;text-align: left&quot;&gt;&lt;span&gt;invoke postProcessBeanFactory()&lt;/span&gt;&lt;/div&gt;" style="verticalLabelPosition=middle;verticalAlign=middle;html=1;shape=process;whiteSpace=wrap;rounded=1;size=0.14;arcSize=6;strokeWidth=1;fontSize=14;align=center;labelPosition=center;" vertex="1" parent="1">
                    <mxGeometry x="149.5" y="428.5" width="375" height="55" as="geometry"/>
                </mxCell>
                <mxCell id="38" style="edgeStyle=none;rounded=0;orthogonalLoop=1;jettySize=auto;html=1;exitX=0.5;exitY=1;exitDx=0;exitDy=0;endArrow=block;endFill=1;fontSize=14;" edge="1" parent="1" source="35" target="36">
                    <mxGeometry relative="1" as="geometry"/>
                </mxCell>
                <mxCell id="35" value="对&lt;font color=&quot;#ff8000&quot;&gt;容器中成员变量&lt;/font&gt;beanFactoryPostProcessors&lt;br&gt;的BeanFactoryPostProcessor进行执行" style="rounded=1;whiteSpace=wrap;html=1;absoluteArcSize=1;arcSize=14;strokeWidth=1;fontSize=14;align=center;" vertex="1" parent="1">
                    <mxGeometry x="147" y="625" width="380" height="60" as="geometry"/>
                </mxCell>
                <mxCell id="46" style="edgeStyle=none;rounded=0;orthogonalLoop=1;jettySize=auto;html=1;exitX=1;exitY=0.5;exitDx=0;exitDy=0;entryX=0;entryY=0.5;entryDx=0;entryDy=0;endArrow=none;endFill=0;fontSize=14;dashed=1;" edge="1" parent="1" source="36" target="39">
                    <mxGeometry relative="1" as="geometry"/>
                </mxCell>
                <mxCell id="36" value="对&lt;font color=&quot;#ff8000&quot;&gt;容器中所有实现了&lt;/font&gt;的BeanFactoryPostProcessor进行执行&lt;br&gt;的BeanFactory后置处理器进行执行" style="verticalLabelPosition=middle;verticalAlign=middle;html=1;shape=process;whiteSpace=wrap;rounded=1;size=0.14;arcSize=6;strokeWidth=1;fontSize=14;align=center;labelPosition=center;" vertex="1" parent="1">
                    <mxGeometry x="72" y="735" width="530" height="60" as="geometry"/>
                </mxCell>
                <mxCell id="43" style="edgeStyle=none;rounded=0;orthogonalLoop=1;jettySize=auto;html=1;exitX=0.5;exitY=1;exitDx=0;exitDy=0;entryX=0.5;entryY=0;entryDx=0;entryDy=0;endArrow=block;endFill=1;fontSize=14;" edge="1" parent="1" source="39" target="40">
                    <mxGeometry relative="1" as="geometry"/>
                </mxCell>
                <mxCell id="39" value="对&lt;font color=&quot;#ff8000&quot;&gt;容器中所有实现了&lt;/font&gt;的BeanFactoryPostProcessor进行执行&lt;br&gt;的BeanFactory后置处理器进行执行" style="verticalLabelPosition=middle;verticalAlign=middle;html=1;shape=process;whiteSpace=wrap;rounded=1;size=0.14;arcSize=6;strokeWidth=1;fontSize=14;align=center;labelPosition=center;" vertex="1" parent="1">
                    <mxGeometry x="702" y="426" width="530" height="60" as="geometry"/>
                </mxCell>
                <mxCell id="44" style="edgeStyle=none;rounded=0;orthogonalLoop=1;jettySize=auto;html=1;exitX=0.5;exitY=1;exitDx=0;exitDy=0;entryX=0.5;entryY=0;entryDx=0;entryDy=0;endArrow=block;endFill=1;fontSize=14;" edge="1" parent="1" source="40" target="41">
                    <mxGeometry relative="1" as="geometry"/>
                </mxCell>
                <mxCell id="40" value="执行容器中实现了&lt;font color=&quot;#ff8000&quot;&gt;PriorityOrdered&lt;/font&gt;接口的BeanFactoryPostProcessor" style="rounded=1;whiteSpace=wrap;html=1;absoluteArcSize=1;arcSize=14;strokeWidth=1;fontSize=14;align=center;" vertex="1" parent="1">
                    <mxGeometry x="827" y="518.5" width="280" height="63" as="geometry"/>
                </mxCell>
                <mxCell id="45" style="edgeStyle=none;rounded=0;orthogonalLoop=1;jettySize=auto;html=1;exitX=0.5;exitY=1;exitDx=0;exitDy=0;entryX=0.5;entryY=0;entryDx=0;entryDy=0;endArrow=block;endFill=1;fontSize=14;" edge="1" parent="1" source="41" target="42">
                    <mxGeometry relative="1" as="geometry"/>
                </mxCell>
                <mxCell id="41" value="&lt;span style=&quot;text-align: left&quot;&gt;执行容器中实现了&lt;/span&gt;&lt;font color=&quot;#ff8000&quot; style=&quot;text-align: left&quot;&gt;Ordered&lt;/font&gt;&lt;span style=&quot;text-align: left&quot;&gt;接口的&lt;/span&gt;BeanFactoryPostProcessor" style="rounded=1;whiteSpace=wrap;html=1;absoluteArcSize=1;arcSize=14;strokeWidth=1;fontSize=14;align=center;" vertex="1" parent="1">
                    <mxGeometry x="827" y="608.5" width="280" height="63" as="geometry"/>
                </mxCell>
                <mxCell id="42" value="执行容器中其他的BeanFactoryPostProcessor" style="rounded=1;whiteSpace=wrap;html=1;absoluteArcSize=1;arcSize=14;strokeWidth=1;fontSize=14;align=center;" vertex="1" parent="1">
                    <mxGeometry x="822" y="698.5" width="290" height="60" as="geometry"/>
                </mxCell>
                <mxCell id="49" style="edgeStyle=none;rounded=0;orthogonalLoop=1;jettySize=auto;html=1;exitX=0.5;exitY=1;exitDx=0;exitDy=0;entryX=0.5;entryY=0;entryDx=0;entryDy=0;endArrow=block;endFill=1;fontSize=14;" edge="1" parent="1" source="47" target="35">
                    <mxGeometry relative="1" as="geometry"/>
                </mxCell>
                <mxCell id="47" value="对&lt;font color=&quot;#ff8000&quot;&gt;BeanDefinitionRegistryPostProcessor类型的&lt;/font&gt;后置处理器进行执行" style="rounded=1;whiteSpace=wrap;html=1;absoluteArcSize=1;arcSize=14;strokeWidth=1;fontSize=14;align=center;" vertex="1" parent="1">
                    <mxGeometry x="198.75" y="523" width="276.5" height="68" as="geometry"/>
                </mxCell>
            </root>
        </mxGraphModel>
    </diagram>
</mxfile>